<svg xmlns="http://www.w3.org/2000/svg" width="244" height="47.083" viewBox="0 0 244 47.083"><defs><style>.a,.c{fill:#fff;}.b,.c{isolation:isolate;}</style></defs><g transform="translate(0 0)"><path class="a" d="M114.374,457.014a17.08,17.08,0,0,1-3.223,4,17.575,17.575,0,0,1-4.517,3,15.508,15.508,0,0,1-4.224,1.321,18.94,18.94,0,0,1-3.162.3,17.564,17.564,0,0,1-10.481-3.594,28.766,28.766,0,0,1-8.518-10.292,26.9,26.9,0,0,1-2.309-7.1,24.564,24.564,0,0,1-.416-3.482c-.022-.729-.116-1.458-.1-2.185a30.726,30.726,0,0,1,.673-5.647,26.883,26.883,0,0,1,2.394-6.795c.621-1.195,1.374-2.322,2.077-3.473a2.114,2.114,0,0,1,.943-.8,40.22,40.22,0,0,1,4.961-2.055,36.756,36.756,0,0,1,5.982-1.413,25.007,25.007,0,0,1,4.765-.219c.989.045,1.972.214,2.956.345a24.705,24.705,0,0,1,8.132,2.71,32.92,32.92,0,0,1,5.895,3.941,25.786,25.786,0,0,1,4.327,4.478A19.93,19.93,0,0,1,123.4,435.5a17.633,17.633,0,0,1,.96,4.252,15.085,15.085,0,0,1-.072,3.115,17.846,17.846,0,0,1-1.787,5.8,19.319,19.319,0,0,1-4.45,5.826,17.737,17.737,0,0,1-1.733,1.337C115.719,456.234,115.078,456.587,114.374,457.014Zm.12-4.4a7.936,7.936,0,0,0,.706-.442,13.235,13.235,0,0,0,2.685-2.924,14.445,14.445,0,0,0,2.5-8.384,14.033,14.033,0,0,0-.237-2.1,11.482,11.482,0,0,0-1.58-4.329c-.433-.695-.886-1.378-1.363-2.043a21.771,21.771,0,0,0-4.057-4.372,23.874,23.874,0,0,0-8.656-4.5,22.633,22.633,0,0,0-4.82-.828,26.237,26.237,0,0,0-6.148.36,33,33,0,0,0-7.869,2.723c-.157.3-.287.609-.467.886a23.707,23.707,0,0,0-2.379,4.809,21.02,21.02,0,0,0-1.246,5.942,29.225,29.225,0,0,0,.086,5.178,17.021,17.021,0,0,0,.916,4.125c.042.111.1.216.188.4a2.2,2.2,0,0,0,.243-.9c.082-.856.14-1.718.287-2.564A23.55,23.55,0,0,1,84.554,439c.578-1.459,1.194-2.9,1.783-4.358a11.024,11.024,0,0,0,.908-4.781c-.042-.746-.2-1.485-.308-2.227-.028-.192-.061-.384-.089-.559.706-.327,1.359-.645,2.024-.933a10.474,10.474,0,0,1,3.441-.917,12.146,12.146,0,0,1,4.008.412,7.679,7.679,0,0,1,5.366,4.361,20.506,20.506,0,0,0,1.022,2.01,7.437,7.437,0,0,0,2.428,2.684,3.607,3.607,0,0,1,.475.425c-1.04.833-4.006,1.467-4.881.986.507-.473,1.351-.423,1.786-1.124-.229-.233-.42-.443-.628-.634a5.989,5.989,0,0,1-1.538-2.143c-.118-.286-.221-.578-.335-.866a4.917,4.917,0,0,0-1.972-2.438,6.893,6.893,0,0,0-5.2-1.03,20.125,20.125,0,0,0-2.912.935,1.828,1.828,0,0,0-.119,1.165,9.055,9.055,0,0,1-.01,2.508,12.261,12.261,0,0,1-.909,3.31c-.422.974-.868,1.938-1.258,2.925a20.56,20.56,0,0,0-1.42,6.241,21.628,21.628,0,0,0,.215,5.166,24.584,24.584,0,0,0,.936,3.854,8.759,8.759,0,0,0,2.647,3.99,18.38,18.38,0,0,0,3,2.069,13.562,13.562,0,0,0,6.018,1.648,15.207,15.207,0,0,0,3.68-.4,12.491,12.491,0,0,0,4.931-2.2c.342-.254.669-.528,1.051-.831a1.82,1.82,0,0,0-.32-.136,12.472,12.472,0,0,1-2.483-.7,13.77,13.77,0,0,1-4.185-2.526,14.393,14.393,0,0,1-3.973-5.654,14.677,14.677,0,0,1-1.026-4.835,15.455,15.455,0,0,1,.287-3.63,5.718,5.718,0,0,1,.757-2.117c.321.05.627.087.929.145a24.56,24.56,0,0,1,5.663,1.823,17.564,17.564,0,0,1,5.888,4.453,18.647,18.647,0,0,1,2.777,4.277c.408.858.737,1.752,1.113,2.626A7.091,7.091,0,0,0,114.494,452.614ZM99.807,442a2.015,2.015,0,0,0-.145.355,10.505,10.505,0,0,0,.286,4.787,11.04,11.04,0,0,0,1.766,3.473,11.267,11.267,0,0,0,2.47,2.577,8.858,8.858,0,0,0,6.064,1.7,2.218,2.218,0,0,0,1.28-.391,8.736,8.736,0,0,0-.133-1.241,16.421,16.421,0,0,0-1.435-3.7,14.544,14.544,0,0,0-4.142-4.871,18.689,18.689,0,0,0-4.421-2.407A3.687,3.687,0,0,0,99.807,442Z" transform="translate(-77.425 -418.556)"/><circle class="a" cx="0.791" cy="0.791" r="0.791" transform="translate(19.191 11.258)"/></g><g class="b" transform="translate(51.462 10.142)"><path class="a" d="M280.245,458.462l-3.431,3.393a10.143,10.143,0,0,0-7.593-3.445,8.678,8.678,0,0,0-6.331,2.505,8.218,8.218,0,0,0-2.551,6.091,8.431,8.431,0,0,0,2.648,6.282,9.006,9.006,0,0,0,6.533,2.575,8.014,8.014,0,0,0,4.259-1.061,7.473,7.473,0,0,0,2.8-3.324h-7.413V466.9h12.877l.035,1.079a12.532,12.532,0,0,1-1.74,6.369,12.163,12.163,0,0,1-4.507,4.594,12.843,12.843,0,0,1-6.491,1.583,14.418,14.418,0,0,1-7.108-1.731,12.665,12.665,0,0,1-4.942-4.933,13.757,13.757,0,0,1-1.818-6.908,12.839,12.839,0,0,1,3.358-8.84,13.239,13.239,0,0,1,10.371-4.472,15.8,15.8,0,0,1,6.247,1.235A14.33,14.33,0,0,1,280.245,458.462Z" transform="translate(-255.466 -453.642)"/><path class="a" d="M349.928,477.727H354v2.384a5.085,5.085,0,0,1,1.757-2.14,4.24,4.24,0,0,1,2.4-.731,4.445,4.445,0,0,1,1.931.487l-1.479,4.089a3.267,3.267,0,0,0-1.375-.418,2.175,2.175,0,0,0-1.853,1.357q-.757,1.357-.757,5.325l.017.922v7.656h-4.716Z" transform="translate(-322.624 -470.419)"/><path class="a" d="M394.182,477.727h4.751v18.932h-4.751v-2a9.31,9.31,0,0,1-2.79,1.905,7.809,7.809,0,0,1-3.033.583,8.425,8.425,0,0,1-6.344-2.845,9.925,9.925,0,0,1-2.677-7.074,10.17,10.17,0,0,1,2.59-7.187,8.251,8.251,0,0,1,6.292-2.8,8,8,0,0,1,3.2.644,8.728,8.728,0,0,1,2.764,1.931Zm-4.994,3.9a4.8,4.8,0,0,0-3.659,1.557,5.613,5.613,0,0,0-1.457,3.993,5.67,5.67,0,0,0,1.483,4.037,4.8,4.8,0,0,0,3.651,1.583,4.893,4.893,0,0,0,3.711-1.557,5.693,5.693,0,0,0,1.474-4.081,5.53,5.53,0,0,0-1.474-4A4.955,4.955,0,0,0,389.188,481.625Z" transform="translate(-343.534 -470.419)"/><path class="a" d="M465.244,477.727h4.75v18.932h-4.75v-2a9.31,9.31,0,0,1-2.79,1.905,7.809,7.809,0,0,1-3.033.583,8.425,8.425,0,0,1-6.344-2.845,9.924,9.924,0,0,1-2.677-7.074,10.17,10.17,0,0,1,2.59-7.187,8.251,8.251,0,0,1,6.292-2.8,8,8,0,0,1,3.2.644,8.728,8.728,0,0,1,2.764,1.931Zm-4.994,3.9a4.8,4.8,0,0,0-3.659,1.557,5.612,5.612,0,0,0-1.457,3.993,5.67,5.67,0,0,0,1.483,4.037,4.8,4.8,0,0,0,3.651,1.583,4.893,4.893,0,0,0,3.711-1.557,5.693,5.693,0,0,0,1.474-4.081,5.53,5.53,0,0,0-1.474-4A4.955,4.955,0,0,0,460.25,481.625Z" transform="translate(-394.055 -470.419)"/><path class="a" d="M522.939,477.727h4.75v1.94a11.385,11.385,0,0,1,2.927-1.895,7.075,7.075,0,0,1,2.685-.533,6.5,6.5,0,0,1,4.779,1.966,6.752,6.752,0,0,1,1.651,4.942v12.511h-4.7v-8.291a20.969,20.969,0,0,0-.3-4.5,3.083,3.083,0,0,0-1.059-1.695,2.965,2.965,0,0,0-1.866-.582,3.5,3.5,0,0,0-2.474.965,5.15,5.15,0,0,0-1.432,2.668,21.549,21.549,0,0,0-.208,3.841v7.6h-4.75Z" transform="translate(-445.626 -470.419)"/><path class="a" d="M598.895,477.727h4.75v18.932h-4.75v-2a9.311,9.311,0,0,1-2.79,1.905,7.809,7.809,0,0,1-3.033.583,8.426,8.426,0,0,1-6.344-2.845,9.925,9.925,0,0,1-2.677-7.074,10.172,10.172,0,0,1,2.59-7.187,8.251,8.251,0,0,1,6.292-2.8,8,8,0,0,1,3.2.644,8.728,8.728,0,0,1,2.764,1.931Zm-4.994,3.9a4.8,4.8,0,0,0-3.66,1.557,5.613,5.613,0,0,0-1.457,3.993,5.67,5.67,0,0,0,1.483,4.037,4.8,4.8,0,0,0,3.651,1.583,4.893,4.893,0,0,0,3.711-1.557,5.693,5.693,0,0,0,1.474-4.081,5.53,5.53,0,0,0-1.474-4A4.955,4.955,0,0,0,593.9,481.625Z" transform="translate(-489.075 -470.419)"/><path class="c" d="M660.841,527.267a2.647,2.647,0,0,1,1.931.792,2.6,2.6,0,0,1,.8,1.923,2.732,2.732,0,0,1-5.464,0,2.6,2.6,0,0,1,.8-1.923A2.646,2.646,0,0,1,660.841,527.267Z" transform="translate(-541.726 -505.986)"/><path class="c" d="M699.485,481.555l-3.954,2.175a6.717,6.717,0,0,0-2.2-1.618,6.624,6.624,0,0,0-2.552-.452,5.945,5.945,0,0,0-4.312,1.59,5.415,5.415,0,0,0-1.646,4.074,5.235,5.235,0,0,0,1.585,3.944,5.745,5.745,0,0,0,4.164,1.529,6.053,6.053,0,0,0,4.965-2.175l3.746,2.565a11.539,11.539,0,0,1-16.418,1,9.839,9.839,0,0,1,2.384-15.626,11.453,11.453,0,0,1,5.508-1.323,11.165,11.165,0,0,1,5.064,1.122A9.611,9.611,0,0,1,699.485,481.555Z" transform="translate(-557.311 -470.419)"/><path class="c" d="M758.905,477.24a10.037,10.037,0,0,1,5.038,1.34,9.825,9.825,0,0,1,5,8.6,9.942,9.942,0,0,1-1.331,5.011,9.6,9.6,0,0,1-3.628,3.646,10.022,10.022,0,0,1-5.064,1.314,9.444,9.444,0,0,1-6.952-2.9,10.036,10.036,0,0,1,.374-14.434A9.506,9.506,0,0,1,758.905,477.24Zm.078,4.472a4.889,4.889,0,0,0-3.686,1.54,5.467,5.467,0,0,0-1.473,3.941,5.569,5.569,0,0,0,1.455,4,4.868,4.868,0,0,0,3.686,1.531,4.925,4.925,0,0,0,3.713-1.549,6.106,6.106,0,0,0,.026-7.944A4.924,4.924,0,0,0,758.983,481.712Z" transform="translate(-606.41 -470.419)"/><path class="c" d="M821.221,477.727h4.75V479.9a8.112,8.112,0,0,1,2.708-2,7.909,7.909,0,0,1,3.248-.661,6.038,6.038,0,0,1,3.2.87,6.292,6.292,0,0,1,2.3,2.541,7.674,7.674,0,0,1,2.777-2.541,7.577,7.577,0,0,1,3.6-.87,6.659,6.659,0,0,1,3.552.94,5.43,5.43,0,0,1,2.2,2.453,13.107,13.107,0,0,1,.671,4.924v11.1h-4.785v-9.605q0-3.219-.8-4.359a2.741,2.741,0,0,0-2.4-1.14,3.643,3.643,0,0,0-2.184.7,4.115,4.115,0,0,0-1.436,1.923,11.957,11.957,0,0,0-.47,3.942v8.544h-4.785v-9.17a12.907,12.907,0,0,0-.375-3.68,3.332,3.332,0,0,0-1.125-1.7,2.959,2.959,0,0,0-1.814-.557,3.576,3.576,0,0,0-2.154.7,4.2,4.2,0,0,0-1.448,1.975,12.2,12.2,0,0,0-.48,4v8.422h-4.75Z" transform="translate(-657.69 -470.419)"/></g></svg>